<svg xmlns="http://www.w3.org/2000/svg" width="223" height="226" viewBox="0 0 223 226">
  <metadata><?xpacket begin="﻿" id="W5M0MpCehiHzreSzNTczkc9d"?>
<x:xmpmeta xmlns:x="adobe:ns:meta/" x:xmptk="Adobe XMP Core 5.6-c138 79.159824, 2016/09/14-01:09:01        ">
   <rdf:RDF xmlns:rdf="http://www.w3.org/1999/02/22-rdf-syntax-ns#">
      <rdf:Description rdf:about=""/>
   </rdf:RDF>
</x:xmpmeta>
                                                                                                    
                                                                                                    
                                                                                                    
                                                                                                    
                                                                                                    
                                                                                                    
                                                                                                    
                                                                                                    
                                                                                                    
                                                                                                    
                                                                                                    
                                                                                                    
                                                                                                    
                                                                                                    
                                                                                                    
                                                                                                    
                                                                                                    
                                                                                                    
                                                                                                    
                                                                                                    
                           
<?xpacket end="w"?></metadata>
<defs>
    <style>
      .cls-1, .cls-2 {
        fill: #828282;
      }

      .cls-1 {
        fill-rule: evenodd;
      }
    </style>
  </defs>
  <path class="cls-1" d="M0,27H32S28,60,56,60,79,27,79,27h64s-1.667,32,24,32,24-32,24-32h32V226H0V27ZM15,83H207V210H15V83Z"/>
  <path class="cls-1" d="M40,12S44,0,55,0,71,12,71,12V35S66.333,47,55,47,40,36,40,36V12Z"/>
  <path id="Shape_2_copy" data-name="Shape 2 copy" class="cls-1" d="M152,12s4-12,15-12,16,12,16,12V35s-4.667,12-16,12-15-11-15-11V12Z"/>
  <rect class="cls-2" x="80" y="100" width="25" height="22"/>
  <rect id="Shape_3_copy" data-name="Shape 3 copy" class="cls-2" x="120" y="100" width="25" height="22"/>
  <rect id="Shape_3_copy_2" data-name="Shape 3 copy 2" class="cls-2" x="158" y="100" width="25" height="22"/>
  <rect id="Shape_3_copy_3" data-name="Shape 3 copy 3" class="cls-2" x="80" y="137" width="25" height="22"/>
  <rect id="Shape_3_copy_4" data-name="Shape 3 copy 4" class="cls-2" x="120" y="137" width="25" height="22"/>
  <rect id="Shape_3_copy_5" data-name="Shape 3 copy 5" class="cls-2" x="158" y="137" width="25" height="22"/>
  <rect id="Shape_3_copy_6" data-name="Shape 3 copy 6" class="cls-2" x="80" y="174" width="25" height="22"/>
  <rect id="Shape_3_copy_9" data-name="Shape 3 copy 9" class="cls-2" x="40" y="137" width="25" height="22"/>
  <rect id="Shape_3_copy_10" data-name="Shape 3 copy 10" class="cls-2" x="40" y="174" width="25" height="22"/>
  <rect id="Shape_3_copy_7" data-name="Shape 3 copy 7" class="cls-2" x="120" y="174" width="25" height="22"/>
  <rect id="Shape_3_copy_8" data-name="Shape 3 copy 8" class="cls-2" x="158" y="174" width="25" height="22"/>
</svg>
