<?xml version="1.0" standalone="yes"?>

<svg version="1.1" viewBox="0.0 0.0 960.0 960.0" fill="none" stroke="none" stroke-linecap="square" stroke-miterlimit="10" xmlns="http://www.w3.org/2000/svg" xmlns:xlink="http://www.w3.org/1999/xlink"><clipPath id="g2c91ba58a6_0_15.0"><path d="m0 0l960.0 0l0 960.0l-960.0 0l0 -960.0z" clip-rule="nonzero"></path></clipPath><g clip-path="url(#g2c91ba58a6_0_15.0)"><path fill="#ffffff" d="m0 0l960.0 0l0 960.0l-960.0 0z" fill-rule="evenodd"></path><path fill="#8ac53f" d="m0 0.27394804l960.0 0l0 960.0l-960.0 0z" fill-rule="evenodd"></path><path stroke="#8ac53f" stroke-width="1.0" stroke-linejoin="round" stroke-linecap="butt" d="m0 0.27394804l960.0 0l0 960.0l-960.0 0z" fill-rule="evenodd"></path><path fill="#ffffff" d="m672.6578 -218.92862l86.04724 86.14174l-504.56693 504.56696l-86.04724 -86.141754z" fill-rule="evenodd"></path><path stroke="#ffffff" stroke-width="1.0" stroke-linejoin="round" stroke-linecap="butt" d="m672.6578 -218.92862l86.04724 86.14174l-504.56693 504.56696l-86.04724 -86.141754z" fill-rule="evenodd"></path><path fill="#ffffff" d="m168.0335 292.19135l86.14174 -86.04726l504.56696 504.5669l-86.141785 86.04724z" fill-rule="evenodd"></path><path stroke="#ffffff" stroke-width="1.0" stroke-linejoin="round" stroke-linecap="butt" d="m168.0335 292.19135l86.14174 -86.04726l504.56696 504.5669l-86.141785 86.04724z" fill-rule="evenodd"></path><path fill="#ffffff" d="m672.6578 628.0382l86.04724 86.14172l-504.56693 504.5669l-86.04724 -86.14172z" fill-rule="evenodd"></path><path stroke="#ffffff" stroke-width="1.0" stroke-linejoin="round" stroke-linecap="butt" d="m672.6578 628.0382l86.04724 86.14172l-504.56693 504.5669l-86.04724 -86.14172z" fill-rule="evenodd"></path><path fill="#ffffff" d="m117.69091 285.3316l0 0c0 -82.27739 66.699 -148.9764 148.97638 -148.9764l0 0c39.510986 0 77.40372 15.695694 105.34219 43.63417c27.938507 27.938492 43.634186 65.83122 43.634186 105.342224l0 0c0 82.277374 -66.699005 148.97638 -148.97638 148.97638l0 0c-82.27739 0 -148.97638 -66.699005 -148.97638 -148.97638z" fill-rule="evenodd"></path><path stroke="#ffffff" stroke-width="1.0" stroke-linejoin="round" stroke-linecap="butt" d="m117.69091 285.3316l0 0c0 -82.27739 66.699 -148.9764 148.97638 -148.9764l0 0c39.510986 0 77.40372 15.695694 105.34219 43.63417c27.938507 27.938492 43.634186 65.83122 43.634186 105.342224l0 0c0 82.277374 -66.699005 148.97638 -148.97638 148.97638l0 0c-82.27739 0 -148.97638 -66.699005 -148.97638 -148.97638z" fill-rule="evenodd"></path><path fill="#ffffff" d="m501.2287 705.6659l0 0c0 -82.27734 66.699036 -148.97638 148.97638 -148.97638l0 0c39.510986 0 77.40375 15.695679 105.342224 43.634216c27.938477 27.938477 43.634155 65.83118 43.634155 105.34216l0 0c0 82.277405 -66.698975 148.97638 -148.97638 148.97638l0 0c-82.27734 0 -148.97638 -66.698975 -148.97638 -148.97638z" fill-rule="evenodd"></path><path stroke="#ffffff" stroke-width="1.0" stroke-linejoin="round" stroke-linecap="butt" d="m501.2287 705.6659l0 0c0 -82.27734 66.699036 -148.97638 148.97638 -148.97638l0 0c39.510986 0 77.40375 15.695679 105.342224 43.634216c27.938477 27.938477 43.634155 65.83118 43.634155 105.34216l0 0c0 82.277405 -66.698975 148.97638 -148.97638 148.97638l0 0c-82.27734 0 -148.97638 -66.698975 -148.97638 -148.97638z" fill-rule="evenodd"></path><path fill="#8ac53f" d="m205.97563 285.32767l0 0c0 -32.49347 27.166107 -58.834625 60.67717 -58.834625l0 0c16.09259 0 31.526062 6.1986237 42.905243 17.23227c11.379181 11.03363 17.771912 25.998444 17.771912 41.602356l0 0c0 32.4935 -27.166077 58.834656 -60.677155 58.834656l0 0c-33.511063 0 -60.67717 -26.341156 -60.67717 -58.834656z" fill-rule="evenodd"></path><path stroke="#8ac53f" stroke-width="1.0" stroke-linejoin="round" stroke-linecap="butt" d="m205.97563 285.32767l0 0c0 -32.49347 27.166107 -58.834625 60.67717 -58.834625l0 0c16.09259 0 31.526062 6.1986237 42.905243 17.23227c11.379181 11.03363 17.771912 25.998444 17.771912 41.602356l0 0c0 32.4935 -27.166077 58.834656 -60.677155 58.834656l0 0c-33.511063 0 -60.67717 -26.341156 -60.67717 -58.834656z" fill-rule="evenodd"></path><path fill="#8ac53f" d="m589.5134 705.662l0 0c0 -32.49347 27.166077 -58.834656 60.677185 -58.834656l0 0c16.09259 0 31.526062 6.1986694 42.905212 17.2323c11.379211 11.03363 17.771973 25.998474 17.771973 41.602356l0 0c0 32.49347 -27.166138 58.834656 -60.677185 58.834656l0 0c-33.51111 0 -60.677185 -26.341187 -60.677185 -58.834656z" fill-rule="evenodd"></path><path stroke="#8ac53f" stroke-width="1.0" stroke-linejoin="round" stroke-linecap="butt" d="m589.5134 705.662l0 0c0 -32.49347 27.166077 -58.834656 60.677185 -58.834656l0 0c16.09259 0 31.526062 6.1986694 42.905212 17.2323c11.379211 11.03363 17.771973 25.998474 17.771973 41.602356l0 0c0 32.49347 -27.166138 58.834656 -60.677185 58.834656l0 0c-33.51111 0 -60.677185 -26.341187 -60.677185 -58.834656z" fill-rule="evenodd"></path></g></svg>

